<svg xmlns="http://www.w3.org/2000/svg" width="359" height="326.001" viewBox="0 0 359 326.001">
  <g id="Subtraction_4" data-name="Subtraction 4" transform="translate(1849 1598.001)" fill="#fff">
    <path d="M -1490.1259765625 -1272.125610351562 L -1493.890625 -1272.125610351562 C -1495.5830078125 -1449.685913085938 -1641.399291992188 -1594.125854492188 -1819 -1594.125854492188 C -1828.95849609375 -1594.125854492188 -1839.0087890625 -1593.671997070312 -1848.874633789062 -1592.776733398438 L -1848.874633789062 -1596.126098632812 C -1837.665161132812 -1597.287475585938 -1826.26953125 -1597.876342773438 -1815.000366210938 -1597.876342773438 C -1792.960815429688 -1597.876342773438 -1770.932495117188 -1595.655151367188 -1749.527099609375 -1591.274658203125 C -1728.666137695312 -1587.005737304688 -1708.148193359375 -1580.636962890625 -1688.543212890625 -1572.345092773438 C -1669.295776367188 -1564.203735351562 -1650.72900390625 -1554.126098632812 -1633.358520507812 -1542.391967773438 C -1616.153930664062 -1530.76806640625 -1599.977416992188 -1517.421142578125 -1585.278198242188 -1502.721801757812 C -1570.578002929688 -1488.021484375 -1557.23095703125 -1471.844970703125 -1545.60791015625 -1454.641479492188 C -1533.873657226562 -1437.271484375 -1523.796264648438 -1418.704711914062 -1515.655639648438 -1399.456787109375 C -1507.364135742188 -1379.855834960938 -1500.994750976562 -1359.338134765625 -1496.724365234375 -1338.473754882812 C -1492.344970703125 -1317.06787109375 -1490.12451171875 -1295.039306640625 -1490.12451171875 -1272.999633789062 C -1490.12451171875 -1272.73779296875 -1490.125122070312 -1272.477416992188 -1490.125732421875 -1272.216796875 L -1490.1259765625 -1272.125610351562 Z" stroke="none"/>
    <path d="M -1490.250610351562 -1272.250610351562 C -1490.25 -1272.5 -1490.24951171875 -1272.749145507812 -1490.24951171875 -1272.999633789062 C -1490.24951171875 -1295.030883789062 -1492.46923828125 -1317.051025390625 -1496.846801757812 -1338.448608398438 C -1501.115600585938 -1359.305053710938 -1507.482421875 -1379.814697265625 -1515.770751953125 -1399.408081054688 C -1523.908203125 -1418.648559570312 -1533.981689453125 -1437.208251953125 -1545.711547851562 -1454.571533203125 C -1557.330200195312 -1471.768432617188 -1570.671997070312 -1487.938720703125 -1585.366577148438 -1502.633422851562 C -1600.060180664062 -1517.3271484375 -1616.23046875 -1530.6689453125 -1633.428466796875 -1542.288452148438 C -1650.792236328125 -1554.017944335938 -1669.351928710938 -1564.091796875 -1688.591918945312 -1572.22998046875 C -1708.189208984375 -1580.518676757812 -1728.69921875 -1586.885009765625 -1749.55224609375 -1591.152099609375 C -1770.949340820312 -1595.531127929688 -1792.96923828125 -1597.751342773438 -1815.000366210938 -1597.751342773438 C -1826.227172851562 -1597.751342773438 -1837.580932617188 -1597.166625976562 -1848.749633789062 -1596.013305664062 L -1848.749633789062 -1592.91357421875 C -1838.923828125 -1593.801025390625 -1828.91650390625 -1594.250854492188 -1819 -1594.250854492188 C -1641.374389648438 -1594.250854492188 -1495.529907226562 -1449.819580078125 -1493.766723632812 -1272.250610351562 L -1490.250610351562 -1272.250610351562 M -1490.001342773438 -1272.000610351562 L -1494.014404296875 -1272.000610351562 C -1495.63623046875 -1449.552612304688 -1641.423706054688 -1594.000854492188 -1819 -1594.000854492188 C -1829.000244140625 -1594.000854492188 -1839.093627929688 -1593.54296875 -1848.999633789062 -1592.639892578125 L -1848.999633789062 -1596.23876953125 C -1837.746337890625 -1597.40869140625 -1826.3076171875 -1598.001342773438 -1815.000366210938 -1598.001342773438 C -1792.9521484375 -1598.001342773438 -1770.915405273438 -1595.779296875 -1749.502075195312 -1591.397094726562 C -1728.632690429688 -1587.126586914062 -1708.106811523438 -1580.755249023438 -1688.494506835938 -1572.460205078125 C -1669.2392578125 -1564.315551757812 -1650.665405273438 -1554.234008789062 -1633.28857421875 -1542.49560546875 C -1616.07763671875 -1530.867431640625 -1599.894897460938 -1517.515380859375 -1585.189819335938 -1502.810180664062 C -1570.483764648438 -1488.10400390625 -1557.131713867188 -1471.921264648438 -1545.50439453125 -1454.71142578125 C -1533.765625 -1437.334838867188 -1523.684326171875 -1418.760986328125 -1515.54052734375 -1399.505493164062 C -1507.245971679688 -1379.897338867188 -1500.8740234375 -1359.371704101562 -1496.601928710938 -1338.498779296875 C -1492.220825195312 -1317.08447265625 -1489.99951171875 -1295.047241210938 -1489.99951171875 -1272.999633789062 C -1489.99951171875 -1272.737670898438 -1490.000122070312 -1272.477294921875 -1490.000732421875 -1272.216430664062 L -1490.001342773438 -1272.000610351562 Z" stroke="none" fill="#fff"/>
  </g>
</svg>
